<svg width="125" height="35" viewBox="0 0 125 35" fill="none" xmlns="http://www.w3.org/2000/svg">
<path fill-rule="evenodd" clip-rule="evenodd" d="M76 17.5C76 20.8 75.3 23.7 73.9 26.3C72.5 28.9 70.7 30.9 68.5 32.2C66.7 33.4 64.7 34.1 62.6 34.5C60.5 34.8 58.2 35 55.8 35H45V0H55.8C58.2 0 60.5 0.2 62.7 0.5C64.8 0.8 66.8 1.6 68.7 2.8C71 4.3 72.8 6.3 74.1 8.8C75.3 11.2 76 14.2 76 17.5ZM91 35L99 22.6V12L91 0V12.4H80V0H71V3.8C72.6 5.1 74 6.7 75 8.7C76.3 11.2 77 14.1 77 17.5C77 20.8 76.3 23.7 74.9 26.3C73.8 28.2 72.5 29.8 71 31.1V35H80V20.3H91V35ZM108.5 22.6L115.1 35H125L112.9 16.9L125 0H115.1L108.5 10.2L101.9 0H92L103 16.9L92 35H101.9L108.5 22.6ZM62.6 7.8C64.2 8.7 65.4 10 66.2 11.6C67 13.2 67.4 15.2 67.5 17.4C67.5 19.8 67.1 21.7 66.4 23.3C65.6 24.9 64.5 26.2 63.1 27.1C61.9 27.9 60.6 28.3 59.3 28.4C57.9 28.5 56.3 28.5 54.3 28.5H54.1V6.6H54.3C56.1 6.6 57.6 6.6 58.9 6.7C60.2 6.8 61.4 7.1 62.6 7.8Z" fill="#2095F3"/>
<path d="M28.8781 0H28.7467C28.0315 0.0140007 27.2725 0.177809 26.4989 0.452222C24.9445 0.999648 23.2586 2.0154 21.5436 3.44767C21.2079 3.72838 20.8649 4.02939 20.5219 4.34441C20.2957 4.1344 20.0694 3.93839 19.8432 3.74238C18.026 2.19671 16.238 1.10955 14.6032 0.523625C13.7859 0.231011 12.9904 0.0553026 12.246 0.0385018C11.5016 0.021001 10.8083 0.161008 10.2026 0.499824C9.02029 1.15296 8.37807 2.43962 8.10075 4.00139C7.81613 5.57227 7.88911 7.47636 8.32699 9.61846C8.41456 10.0455 8.51673 10.4795 8.6335 10.9275C8.10805 11.0675 7.59719 11.2215 7.11552 11.3825C4.98962 12.0896 3.27022 12.9856 2.0354 13.9937C0.800587 15.0087 0 16.1848 0 17.4658C0 18.7889 0.841456 20.014 2.14268 21.078C3.44391 22.1491 5.25965 23.1011 7.50231 23.8291C7.85992 23.9482 8.22481 24.0602 8.60431 24.1652C8.48024 24.6412 8.37077 25.1102 8.2832 25.5652C7.86721 27.6863 7.81613 29.5624 8.10805 31.0955C8.40726 32.6286 9.07138 33.8816 10.2318 34.5187C11.4213 35.1837 12.9466 35.0927 14.5668 34.5467C16.1796 34.0006 17.9384 32.9646 19.7191 31.4665C20.0037 31.2285 20.2884 30.9765 20.573 30.7105C20.9452 31.0535 21.3174 31.3825 21.6896 31.6835C23.39 33.0906 25.0539 34.0706 26.5865 34.5887C28.1191 35.1067 29.586 35.1837 30.7391 34.5397C31.9359 33.8746 32.6146 32.5656 32.9284 30.9485C33.2423 29.3314 33.1839 27.3503 32.7241 25.1242C32.6511 24.7812 32.5708 24.4242 32.4833 24.0742C32.7387 23.9972 32.9941 23.9202 33.2423 23.8431C35.5484 23.1151 37.424 22.1771 38.7741 21.113C40.1242 20.049 41 18.8169 41 17.4658C41 16.1638 40.1607 14.9877 38.8909 13.9657C37.621 12.9506 35.8622 12.0546 33.7093 11.3475C33.286 11.2075 32.8482 11.0745 32.3957 10.9485C32.4687 10.6615 32.5417 10.3745 32.6 10.0875C33.089 7.80538 33.1766 5.77528 32.892 4.1211C32.6 2.46762 31.9286 1.12355 30.7099 0.448722C30.1625 0.143507 29.5349 0.00490024 28.8781 0ZM28.754 1.69058C29.2138 1.67938 29.5787 1.76058 29.8341 1.90409C30.3888 2.20861 30.9215 3.02765 31.1623 4.39411C31.4032 5.76828 31.3375 7.61637 30.8777 9.74447C30.8193 10.0035 30.7609 10.2625 30.6953 10.5285C29.0021 10.1505 27.1558 9.87048 25.2145 9.69547C24.0979 8.16939 22.9302 6.76933 21.748 5.54427C22.0691 5.25515 22.3756 4.97514 22.6894 4.71613C24.2876 3.38536 25.8275 2.47882 27.1047 2.0294C27.7396 1.80469 28.2942 1.70178 28.754 1.69058ZM12.0562 1.72908H12.2314C12.7204 1.74238 13.3115 1.85509 13.9902 2.0973C15.3476 2.58312 16.9897 3.56037 18.6755 5.00244C18.8798 5.17745 19.0842 5.35946 19.2885 5.55127C18.1063 6.76933 16.9313 8.16239 15.8001 9.68847C13.8661 9.86347 12.0198 10.1435 10.3339 10.5075C10.2245 10.0945 10.1296 9.68847 10.0493 9.29645C9.64062 7.30835 9.59683 5.57227 9.82307 4.28841C10.0566 3.00524 10.5602 2.24221 11.0783 1.95379C11.3192 1.82009 11.6476 1.73888 12.0562 1.72908ZM20.5219 6.75533C21.332 7.58837 22.1347 8.52641 22.9302 9.54146C22.1347 9.50646 21.3174 9.48546 20.5 9.48546C19.6899 9.48546 18.8871 9.50646 18.0917 9.54146C18.8944 8.52641 19.7118 7.59537 20.5219 6.75533ZM20.5 11.1655C21.7771 11.1655 23.0251 11.2145 24.2366 11.2985C24.9226 12.2646 25.5867 13.2796 26.2216 14.3297C26.8565 15.3797 27.4477 16.4368 27.9804 17.4798C27.4477 18.5369 26.8638 19.6079 26.2216 20.665C25.5867 21.722 24.9299 22.7371 24.2512 23.7101C23.0324 23.7941 21.7771 23.8361 20.5 23.8361C19.2375 23.8361 17.9968 23.7941 16.7853 23.7241C16.0993 22.7511 15.4279 21.736 14.7857 20.679C14.1435 19.6219 13.5596 18.5579 13.0342 17.5078C13.5596 16.4508 14.1435 15.3937 14.7784 14.3367C15.4133 13.2796 16.0847 12.2646 16.7707 11.2985C17.9822 11.2145 19.2302 11.1655 20.5 11.1655ZM14.5157 11.5156C14.0851 12.1596 13.6691 12.8176 13.2604 13.4967C12.8517 14.1757 12.4722 14.8547 12.1073 15.5267C11.5892 14.3647 11.1586 13.2236 10.801 12.1316C11.9687 11.8796 13.2093 11.6766 14.5157 11.5156ZM26.4843 11.5226C27.798 11.6766 29.0532 11.8936 30.2209 12.1456C29.8706 13.2376 29.4254 14.3717 28.9073 15.5337C28.5351 14.8547 28.141 14.1687 27.7323 13.4897C27.3236 12.8176 26.9076 12.1596 26.4843 11.5226ZM9.10057 12.5446C9.61143 14.1337 10.2828 15.8068 11.1002 17.5078C10.2682 19.2369 9.58953 20.931 9.07138 22.5411C8.72837 22.4501 8.39267 22.3451 8.06426 22.2401C5.99163 21.561 4.35543 20.686 3.2819 19.804C2.20764 18.9219 1.75151 18.0679 1.75151 17.4658C1.75151 16.8848 2.16823 16.1008 3.17389 15.2747C4.17882 14.4487 5.72161 13.6227 7.69206 12.9646C8.13724 12.8176 8.61161 12.6776 9.10057 12.5446ZM31.9286 12.5656C32.3446 12.6846 32.7533 12.8106 33.1401 12.9366C35.1397 13.5947 36.7307 14.4207 37.7743 15.2607C38.8106 16.0938 39.2485 16.8918 39.2485 17.4658C39.2485 18.0749 38.7814 18.9289 37.6648 19.811C36.5409 20.693 34.8405 21.568 32.6949 22.2541C32.4687 22.3241 32.2424 22.3941 32.0089 22.4571C31.4834 20.861 30.7755 19.1809 29.929 17.4798C30.7464 15.7998 31.4178 14.1477 31.9286 12.5656ZM20.5 13.9587C19.5307 13.96 18.6015 14.3299 17.9161 14.9873C17.2307 15.6448 16.8451 16.5361 16.8437 17.4658C16.8431 18.3968 17.2279 19.2899 17.9135 19.9489C18.5991 20.6078 19.5294 20.9787 20.5 20.98C20.9812 20.9803 21.4577 20.8896 21.9023 20.7131C22.347 20.5366 22.7509 20.2777 23.0912 19.9514C23.4314 19.625 23.7013 19.2375 23.8853 18.811C24.0693 18.3845 24.1639 17.9274 24.1636 17.4658C24.1622 16.5349 23.7756 15.6425 23.0886 14.9849C22.4016 14.3272 21.4706 13.9581 20.5 13.9587ZM28.9292 19.4259C29.4692 20.616 29.9363 21.778 30.3012 22.8841C29.1116 23.1431 27.8272 23.3531 26.4843 23.5071C26.9076 22.8561 27.3309 22.1841 27.7396 21.505C28.1556 20.812 28.5497 20.119 28.9292 19.4259ZM12.1073 19.4819C12.4722 20.161 12.859 20.84 13.2677 21.519C13.6837 22.2051 14.1143 22.8771 14.5522 23.5351C13.2239 23.3951 11.9541 23.1991 10.7791 22.9541C11.1367 21.8411 11.5819 20.679 12.1073 19.4819ZM30.7828 24.5012C30.8704 24.8232 30.9434 25.1452 31.0091 25.4532C31.4324 27.5113 31.4616 29.3104 31.2061 30.6405C30.9507 31.9775 30.4033 32.7826 29.8633 33.0836C29.3378 33.3776 28.4183 33.4266 27.1703 33.0066C25.9224 32.5796 24.4044 31.7115 22.8281 30.4095C22.485 30.1294 22.142 29.8284 21.799 29.5064C22.974 28.2744 24.1271 26.8603 25.2364 25.3202C27.2068 25.1522 29.0751 24.8792 30.7828 24.5012ZM10.3047 24.5782C12.0125 24.9422 13.8734 25.1942 15.8293 25.3412C16.9678 26.8813 18.1574 28.2884 19.3469 29.5134C19.0842 29.7584 18.8288 29.9894 18.566 30.2065C16.924 31.5855 15.3111 32.5096 13.9829 32.9576C12.6474 33.4126 11.6476 33.3636 11.1075 33.0626C10.5821 32.7756 10.0785 32.0335 9.83037 30.7875C9.58953 29.5414 9.61873 27.8473 10.0055 25.8802C10.0858 25.4602 10.188 25.0262 10.3047 24.5782ZM22.974 25.4602C22.1785 26.4963 21.3758 27.4483 20.573 28.3024C19.7483 27.4483 18.9163 26.4963 18.1063 25.4742C18.8944 25.5022 19.6899 25.5162 20.5 25.5162C21.332 25.5162 22.1566 25.4952 22.974 25.4602Z" fill="#2095F3"/>
</svg>
