<svg width="42" height="42" viewBox="0 0 42 42" fill="none" xmlns="http://www.w3.org/2000/svg">
<path d="M38 42H4C2.93913 42 1.92172 41.5786 1.17157 40.8284C0.421427 40.0783 0 39.0609 0 38V4C0 2.93913 0.421427 1.92172 1.17157 1.17157C1.92172 0.421427 2.93913 0 4 0H38C39.0609 0 40.0783 0.421427 40.8284 1.17157C41.5786 1.92172 42 2.93913 42 4V38C42 39.0609 41.5786 40.0783 40.8284 40.8284C40.0783 41.5786 39.0609 42 38 42ZM40 4C40 3.46957 39.7893 2.96086 39.4142 2.58579C39.0391 2.21071 38.5304 2 38 2H4C3.46957 2 2.96086 2.21071 2.58579 2.58579C2.21071 2.96086 2 3.46957 2 4V38C2 38.5304 2.21071 39.0391 2.58579 39.4142C2.96086 39.7893 3.46957 40 4 40H38C38.5304 40 39.0391 39.7893 39.4142 39.4142C39.7893 39.0391 40 38.5304 40 38V4ZM32 34H10C9.46957 34 8.96086 33.7893 8.58579 33.4142C8.21071 33.0391 8 32.5304 8 32V30C8 29.4696 8.21071 28.9609 8.58579 28.5858C8.96086 28.2107 9.46957 28 10 28H32C32.5304 28 33.0391 28.2107 33.4142 28.5858C33.7893 28.9609 34 29.4696 34 30V32C34 32.5304 33.7893 33.0391 33.4142 33.4142C33.0391 33.7893 32.5304 34 32 34ZM32 30H10V32H32V30ZM32 24H18C17.4696 24 16.9609 23.7893 16.5858 23.4142C16.2107 23.0391 16 22.5304 16 22V20C16 19.4696 16.2107 18.9609 16.5858 18.5858C16.9609 18.2107 17.4696 18 18 18H32C32.5304 18 33.0391 18.2107 33.4142 18.5858C33.7893 18.9609 34 19.4696 34 20V22C34 22.5304 33.7893 23.0391 33.4142 23.4142C33.0391 23.7893 32.5304 24 32 24ZM32 20H18V22H32V20ZM32 14H18C17.4696 14 16.9609 13.7893 16.5858 13.4142C16.2107 13.0391 16 12.5304 16 12V10C16 9.46957 16.2107 8.96086 16.5858 8.58579C16.9609 8.21071 17.4696 8 18 8H32C32.5304 8 33.0391 8.21071 33.4142 8.58579C33.7893 8.96086 34 9.46957 34 10V12C34 12.5304 33.7893 13.0391 33.4142 13.4142C33.0391 13.7893 32.5304 14 32 14ZM32 10H18V12H32V10ZM12 24H10C9.46957 24 8.96086 23.7893 8.58579 23.4142C8.21071 23.0391 8 22.5304 8 22V20C8 19.4696 8.21071 18.9609 8.58579 18.5858C8.96086 18.2107 9.46957 18 10 18H12C12.5304 18 13.0391 18.2107 13.4142 18.5858C13.7893 18.9609 14 19.4696 14 20V22C14 22.5304 13.7893 23.0391 13.4142 23.4142C13.0391 23.7893 12.5304 24 12 24ZM12 20H10V22H12V20ZM9.944 13.842C9.75524 13.9778 9.52094 14.0345 9.291 14H9.26C9.14147 14.0155 9.02102 14.0056 8.90657 13.9712C8.79211 13.9367 8.68627 13.8784 8.596 13.8L6.231 11.308C6.15106 11.2269 6.08937 11.1296 6.05006 11.0227C6.01074 10.9157 5.99472 10.8017 6.00305 10.6881C6.01138 10.5745 6.04388 10.4639 6.09836 10.3639C6.15285 10.2639 6.22808 10.1766 6.319 10.108C6.50861 9.95911 6.74695 9.88633 6.98739 9.9039C7.22782 9.92147 7.45305 10.0281 7.619 10.203L9.335 12.05L13.407 8.238C13.5852 8.07504 13.818 7.98468 14.0595 7.98468C14.301 7.98468 14.5338 8.07504 14.712 8.238C14.7973 8.31551 14.8654 8.41 14.9121 8.51539C14.9587 8.62078 14.9828 8.73475 14.9828 8.85C14.9828 8.96525 14.9587 9.07922 14.9121 9.18461C14.8654 9.29 14.7973 9.38449 14.712 9.462L9.944 13.842Z" fill="#03A9F4"/>
</svg>
