<svg width="42" height="42" viewBox="0 0 42 42" fill="none" xmlns="http://www.w3.org/2000/svg">
<path d="M38 42H4C2.93913 42 1.92172 41.5786 1.17157 40.8284C0.421427 40.0783 0 39.0609 0 38V4C0 2.93913 0.421427 1.92172 1.17157 1.17157C1.92172 0.421427 2.93913 0 4 0H38C39.0609 0 40.0783 0.421427 40.8284 1.17157C41.5786 1.92172 42 2.93913 42 4V38C42 39.0609 41.5786 40.0783 40.8284 40.8284C40.0783 41.5786 39.0609 42 38 42ZM40 4C40 3.46957 39.7893 2.96086 39.4142 2.58579C39.0391 2.21071 38.5304 2 38 2H4C3.46957 2 2.96086 2.21071 2.58579 2.58579C2.21071 2.96086 2 3.46957 2 4V38C2 38.5304 2.21071 39.0391 2.58579 39.4142C2.96086 39.7893 3.46957 40 4 40H38C38.5304 40 39.0391 39.7893 39.4142 39.4142C39.7893 39.0391 40 38.5304 40 38V4ZM8 32H34V34H8V32ZM8 26H34V28H8V26ZM8 20H34V22H8V20ZM8 14H34V16H8V14ZM8 8H34V10H8V8Z" fill="#03A9F4"/>
</svg>
