<svg width="46" height="46" viewBox="0 0 46 46" fill="none" xmlns="http://www.w3.org/2000/svg">
<path d="M40 44H6C4.93913 44 3.92172 43.5786 3.17157 42.8284C2.42143 42.0783 2 41.0609 2 40V6C2 4.93913 2.42143 3.92172 3.17157 3.17157C3.92172 2.42143 4.93913 2 6 2H40C41.0609 2 42.0783 2.42143 42.8284 3.17157C43.5786 3.92172 44 4.93913 44 6V40C44 41.0609 43.5786 42.0783 42.8284 42.8284C42.0783 43.5786 41.0609 44 40 44ZM42 6C42 5.46957 41.7893 4.96086 41.4142 4.58579C41.0391 4.21071 40.5304 4 40 4H6C5.46957 4 4.96086 4.21071 4.58579 4.58579C4.21071 4.96086 4 5.46957 4 6V40C4 40.5304 4.21071 41.0391 4.58579 41.4142C4.96086 41.7893 5.46957 42 6 42H40C40.5304 42 41.0391 41.7893 41.4142 41.4142C41.7893 41.0391 42 40.5304 42 40V6ZM36 26H25V28C25 28.5304 24.7893 29.0391 24.4142 29.4142C24.0391 29.7893 23.5304 30 23 30C22.4696 30 21.9609 29.7893 21.5858 29.4142C21.2107 29.0391 21 28.5304 21 28V26H10C9.46957 26 8.96086 25.7893 8.58579 25.4142C8.21071 25.0391 8 24.5304 8 24V18C8 17.4696 8.21071 16.9609 8.58579 16.5858C8.96086 16.2107 9.46957 16 10 16H21V14C21 13.4696 21.2107 12.9609 21.5858 12.5858C21.9609 12.2107 22.4696 12 23 12C23.5304 12 24.0391 12.2107 24.4142 12.5858C24.7893 12.9609 25 13.4696 25 14V16H36C36.5304 16 37.0391 16.2107 37.4142 16.5858C37.7893 16.9609 38 17.4696 38 18V24C38 24.5304 37.7893 25.0391 37.4142 25.4142C37.0391 25.7893 36.5304 26 36 26ZM21 22H14V20H21V18H12C10.006 18 10 18.056 10 20V22C10 24 9.936 24 12 24H21V22ZM36 20C36 18.022 35.963 18.033 34 18H25V20H32V22H25V24H34C36 24 36 24 36 22V20ZM10 30H8V28H10V30ZM38 30H36V28H38V30Z" fill="#03A9F4"/>
</svg>
