<svg width="46" height="46" viewBox="0 0 46 46" fill="none" xmlns="http://www.w3.org/2000/svg">
<path d="M40 44H6C4.93913 44 3.92172 43.5786 3.17157 42.8284C2.42143 42.0783 2 41.0609 2 40V6C2 4.93913 2.42143 3.92172 3.17157 3.17157C3.92172 2.42143 4.93913 2 6 2H40C41.0609 2 42.0783 2.42143 42.8284 3.17157C43.5786 3.92172 44 4.93913 44 6V40C44 41.0609 43.5786 42.0783 42.8284 42.8284C42.0783 43.5786 41.0609 44 40 44ZM42 6C42 5.46957 41.7893 4.96086 41.4142 4.58579C41.0391 4.21071 40.5304 4 40 4H24V8C24 8.53043 24.2107 9.03914 24.5858 9.41421C24.9609 9.78929 25.4696 10 26 10H42V6ZM42 12H26C24.9391 12 23.9217 11.5786 23.1716 10.8284C22.4214 10.0783 22 9.06087 22 8V4H6C5.46957 4 4.96086 4.21071 4.58579 4.58579C4.21071 4.96086 4 5.46957 4 6V40C4 40.5304 4.21071 41.0391 4.58579 41.4142C4.96086 41.7893 5.46957 42 6 42H40C40.5304 42 41.0391 41.7893 41.4142 41.4142C41.7893 41.0391 42 40.5304 42 40V12ZM8 36H38V38H8V36ZM8 30H38V32H8V30ZM8 24H38V26H8V24ZM8 18H38V20H8V18Z" fill="#03A9F4"/>
</svg>
