<svg width="46" height="46" viewBox="0 0 46 46" fill="none" xmlns="http://www.w3.org/2000/svg">
<path d="M42 44H34C33.4696 44 32.9609 43.7893 32.5858 43.4142C32.2107 43.0391 32 42.5304 32 42V40H26V42C26 42.5304 25.7893 43.0391 25.4142 43.4142C25.0391 43.7893 24.5304 44 24 44H16C15.4696 44 14.9609 43.7893 14.5858 43.4142C14.2107 43.0391 14 42.5304 14 42V40H6V12H4C3.46957 12 2.96086 11.7893 2.58579 11.4142C2.21071 11.0391 2 10.5304 2 10V4C2 3.46957 2.21071 2.96086 2.58579 2.58579C2.96086 2.21071 3.46957 2 4 2H12C12.5304 2 13.0391 2.21071 13.4142 2.58579C13.7893 2.96086 14 3.46957 14 4V10C14 10.5304 13.7893 11.0391 13.4142 11.4142C13.0391 11.7893 12.5304 12 12 12H8V22H14V20C14 19.4696 14.2107 18.9609 14.5858 18.5858C14.9609 18.2107 15.4696 18 16 18H24C24.5304 18 25.0391 18.2107 25.4142 18.5858C25.7893 18.9609 26 19.4696 26 20V26C26 26.5304 25.7893 27.0391 25.4142 27.4142C25.0391 27.7893 24.5304 28 24 28H16C15.4696 28 14.9609 27.7893 14.5858 27.4142C14.2107 27.0391 14 26.5304 14 26V24H8V38H14V36C14 35.4696 14.2107 34.9609 14.5858 34.5858C14.9609 34.2107 15.4696 34 16 34H24C24.5304 34 25.0391 34.2107 25.4142 34.5858C25.7893 34.9609 26 35.4696 26 36V38H32V36C32 35.4696 32.2107 34.9609 32.5858 34.5858C32.9609 34.2107 33.4696 34 34 34H42C42.5304 34 43.0391 34.2107 43.4142 34.5858C43.7893 34.9609 44 35.4696 44 36V42C44 42.5304 43.7893 43.0391 43.4142 43.4142C43.0391 43.7893 42.5304 44 42 44ZM12 10V4H4V10H12ZM16 26H24V20H16V26ZM24 36H16V42H24V36ZM42 36H34V42H42V36Z" fill="#03A9F4"/>
</svg>
