<svg width="46" height="46" viewBox="0 0 46 46" fill="none" xmlns="http://www.w3.org/2000/svg">
<path d="M40 44H6C4.93913 44 3.92172 43.5786 3.17157 42.8284C2.42143 42.0783 2 41.0609 2 40V6C2 4.93913 2.42143 3.92172 3.17157 3.17157C3.92172 2.42143 4.93913 2 6 2H40C41.0609 2 42.0783 2.42143 42.8284 3.17157C43.5786 3.92172 44 4.93913 44 6V40C44 41.0609 43.5786 42.0783 42.8284 42.8284C42.0783 43.5786 41.0609 44 40 44ZM42 6C42 5.46957 41.7893 4.96086 41.4142 4.58579C41.0391 4.21071 40.5304 4 40 4H6C5.46957 4 4.96086 4.21071 4.58579 4.58579C4.21071 4.96086 4 5.46957 4 6V40C4 40.5304 4.21071 41.0391 4.58579 41.4142C4.96086 41.7893 5.46957 42 6 42H40C40.5304 42 41.0391 41.7893 41.4142 41.4142C41.7893 41.0391 42 40.5304 42 40V6ZM34 30H20C18.9391 30 17.9217 29.5786 17.1716 28.8284C16.4214 28.0783 16 27.0609 16 26V12C16 10.9391 16.4214 9.92172 17.1716 9.17157C17.9217 8.42143 18.9391 8 20 8H34C35.0609 8 36.0783 8.42143 36.8284 9.17157C37.5786 9.92172 38 10.9391 38 12V26C38 27.0609 37.5786 28.0783 36.8284 28.8284C36.0783 29.5786 35.0609 30 34 30ZM36 12C36 11.4696 35.7893 10.9609 35.4142 10.5858C35.0391 10.2107 34.5304 10 34 10H20C19.4696 10 18.9609 10.2107 18.5858 10.5858C18.2107 10.9609 18 11.4696 18 12V26C18 26.5304 18.2107 27.0391 18.5858 27.4142C18.9609 27.7893 19.4696 28 20 28H34C34.5304 28 35.0391 27.7893 35.4142 27.4142C35.7893 27.0391 36 26.5304 36 26V12ZM12 36H26C26.5304 36 27.0391 35.7893 27.4142 35.4142C27.7893 35.0391 28 34.5304 28 34H30C30 35.0609 29.5786 36.0783 28.8284 36.8284C28.0783 37.5786 27.0609 38 26 38H12C10.9391 38 9.92172 37.5786 9.17157 36.8284C8.42143 36.0783 8 35.0609 8 34V20C8 18.9391 8.42143 17.9217 9.17157 17.1716C9.92172 16.4214 10.9391 16 12 16V18C11.4696 18 10.9609 18.2107 10.5858 18.5858C10.2107 18.9609 10 19.4696 10 20V34C10 34.5304 10.2107 35.0391 10.5858 35.4142C10.9609 35.7893 11.4696 36 12 36Z" fill="#03A9F4"/>
</svg>
