<svg width="46" height="46" viewBox="0 0 46 46" fill="none" xmlns="http://www.w3.org/2000/svg">
<path d="M40 44H6C3.8 44 2 42.2 2 40V6C2 3.8 3.8 2 6 2H10V0H12V2H34V0H36V2H40C42.2 2 44 3.8 44 6V40C44 42.2 42.2 44 40 44ZM42 6C42 4.9 41.1 4 40 4H36V6H34V4H12V6H10V4H6C4.9 4 4 4.9 4 6V12H42V6ZM42 14H4V40C4 41.1 4.9 42 6 42H40C41.1 42 42 41.1 42 40V14ZM38 38H8C6.9 38 6 37.1 6 36V32V30V26V24V20C6 18.9 6.9 18 8 18H38C39.1 18 40 18.9 40 20V24V26V30V32V36C40 37.1 39.1 38 38 38ZM32 36H38V32H32V36ZM24 36H30V32H24V36ZM30 30V26H24V30H30ZM16 36H22V32H16V36ZM22 30V26H16V30H22ZM8 36H14V32H8V36ZM8 30H14V26H8V30ZM8 20V24H14V20H8ZM16 20V24H22V20H16ZM24 20V24H30V20H24ZM38 20H32V24H38V20ZM32 26V30H38V26H32Z" fill="#03A9F4"/>
</svg>
