<svg width="46" height="46" viewBox="0 0 46 46" fill="none" xmlns="http://www.w3.org/2000/svg">
<path d="M40 44H6C4.93913 44 3.92172 43.5786 3.17157 42.8284C2.42143 42.0783 2 41.0609 2 40V6C2 4.93913 2.42143 3.92172 3.17157 3.17157C3.92172 2.42143 4.93913 2 6 2H40C41.0609 2 42.0783 2.42143 42.8284 3.17157C43.5786 3.92172 44 4.93913 44 6V40C44 41.0609 43.5786 42.0783 42.8284 42.8284C42.0783 43.5786 41.0609 44 40 44ZM42 6C42 5.46957 41.7893 4.96086 41.4142 4.58579C41.0391 4.21071 40.5304 4 40 4H6C5.46957 4 4.96086 4.21071 4.58579 4.58579C4.21071 4.96086 4 5.46957 4 6V40C4 40.5304 4.21071 41.0391 4.58579 41.4142C4.96086 41.7893 5.46957 42 6 42H40C40.5304 42 41.0391 41.7893 41.4142 41.4142C41.7893 41.0391 42 40.5304 42 40V6ZM34 38H32C31.4696 38 30.9609 37.7893 30.5858 37.4142C30.2107 37.0391 30 36.5304 30 36V24C30 23.4696 30.2107 22.9609 30.5858 22.5858C30.9609 22.2107 31.4696 22 32 22H34C34.5304 22 35.0391 22.2107 35.4142 22.5858C35.7893 22.9609 36 23.4696 36 24V36C36 36.5304 35.7893 37.0391 35.4142 37.4142C35.0391 37.7893 34.5304 38 34 38ZM34 25C34 24.7348 33.8946 24.4804 33.7071 24.2929C33.5196 24.1054 33.2652 24 33 24C32.7348 24 32.4804 24.1054 32.2929 24.2929C32.1054 24.4804 32 24.7348 32 25V35C32 35.2652 32.1054 35.5196 32.2929 35.7071C32.4804 35.8946 32.7348 36 33 36C33.2652 36 33.5196 35.8946 33.7071 35.7071C33.8946 35.5196 34 35.2652 34 35V25ZM24 38H22C21.4696 38 20.9609 37.7893 20.5858 37.4142C20.2107 37.0391 20 36.5304 20 36V8C20 7.46957 20.2107 6.96086 20.5858 6.58579C20.9609 6.21071 21.4696 6 22 6H24C24.5304 6 25.0391 6.21071 25.4142 6.58579C25.7893 6.96086 26 7.46957 26 8V36C26 36.5304 25.7893 37.0391 25.4142 37.4142C25.0391 37.7893 24.5304 38 24 38ZM24 9C24 8.73478 23.8946 8.48043 23.7071 8.29289C23.5196 8.10536 23.2652 8 23 8C22.7348 8 22.4804 8.10536 22.2929 8.29289C22.1054 8.48043 22 8.73478 22 9V35C22 35.2652 22.1054 35.5196 22.2929 35.7071C22.4804 35.8946 22.7348 36 23 36C23.2652 36 23.5196 35.8946 23.7071 35.7071C23.8946 35.5196 24 35.2652 24 35V9ZM14 38H12C11.4696 38 10.9609 37.7893 10.5858 37.4142C10.2107 37.0391 10 36.5304 10 36V17C10 16.4696 10.2107 15.9609 10.5858 15.5858C10.9609 15.2107 11.4696 15 12 15H14C14.5304 15 15.0391 15.2107 15.4142 15.5858C15.7893 15.9609 16 16.4696 16 17V36C16 36.5304 15.7893 37.0391 15.4142 37.4142C15.0391 37.7893 14.5304 38 14 38ZM14 18C14 17.7348 13.8946 17.4804 13.7071 17.2929C13.5196 17.1054 13.2652 17 13 17C12.7348 17 12.4804 17.1054 12.2929 17.2929C12.1054 17.4804 12 17.7348 12 18V35C12 35.2652 12.1054 35.5196 12.2929 35.7071C12.4804 35.8946 12.7348 36 13 36C13.2652 36 13.5196 35.8946 13.7071 35.7071C13.8946 35.5196 14 35.2652 14 35V18Z" fill="#03A9F4"/>
</svg>
