<svg width="46" height="46" viewBox="0 0 46 46" fill="none" xmlns="http://www.w3.org/2000/svg">
<path d="M37.295 32.113C31.141 40.06 19.084 44.007 15.115 44.007C11.146 44.007 2.008 43.826 2.008 38.06C2.008 32.294 10.074 33.381 10.074 29.14C10.074 24.899 4.024 26.7 4.024 21.211C4.024 16.462 6.551 11.843 13.098 7.33502C18.5056 3.85157 24.8005 1.9959 31.233 1.98902V3.97202C25.2131 3.97516 19.3206 5.70564 14.255 8.95802C8.728 12.764 6.041 16.772 6.041 21.21C6.041 22.917 6.735 23.264 8.255 24.024C9.775 24.784 12.09 25.94 12.09 29.139C12.09 32.338 9.371 33.639 7.39 34.586C5 35.73 4.024 36.364 4.024 38.06C4.024 40.691 7.755 42.025 15.114 42.025C18.694 42.025 30.014 38.244 35.69 30.913C40.753 24.375 43.377 15.113 41.79 9.37402C41.6194 8.47033 41.2358 7.62032 40.6712 6.89444C40.1065 6.16856 39.3769 5.5877 38.543 5.20002C36.2061 4.33384 33.7267 3.9162 31.235 3.96902V1.98902C33.9901 1.93441 36.7306 2.40303 39.311 3.37002C46.991 6.48102 45.313 21.759 37.295 32.113ZM34 25.5C34 25.9945 33.8534 26.4778 33.5787 26.8889C33.304 27.3001 32.9135 27.6205 32.4567 27.8097C31.9999 27.9989 31.4972 28.0484 31.0123 27.952C30.5273 27.8555 30.0819 27.6174 29.7322 27.2678C29.3826 26.9182 29.1445 26.4727 29.048 25.9877C28.9516 25.5028 29.0011 25.0001 29.1903 24.5433C29.3795 24.0865 29.6999 23.6961 30.1111 23.4213C30.5222 23.1466 31.0055 23 31.5 23C32.163 23 32.7989 23.2634 33.2678 23.7323C33.7366 24.2011 34 24.837 34 25.5ZM31 25.5C31 25.5989 31.0293 25.6956 31.0843 25.7778C31.1392 25.86 31.2173 25.9241 31.3087 25.962C31.4 25.9998 31.5006 26.0097 31.5975 25.9904C31.6945 25.9711 31.7836 25.9235 31.8535 25.8536C31.9235 25.7836 31.9711 25.6946 31.9904 25.5976C32.0097 25.5006 31.9998 25.4 31.9619 25.3087C31.9241 25.2173 31.86 25.1392 31.7778 25.0843C31.6956 25.0293 31.5989 25 31.5 25C31.3674 25 31.2402 25.0527 31.1464 25.1465C31.0527 25.2402 31 25.3674 31 25.5ZM25.5 12C25.0055 12 24.5222 11.8534 24.1111 11.5787C23.6999 11.304 23.3795 10.9135 23.1903 10.4567C23.0011 9.99991 22.9516 9.49725 23.048 9.01229C23.1445 8.52734 23.3826 8.08188 23.7322 7.73225C24.0819 7.38262 24.5273 7.14452 25.0123 7.04806C25.4972 6.95159 25.9999 7.0011 26.4567 7.19032C26.9135 7.37954 27.304 7.69997 27.5787 8.11109C27.8534 8.52222 28 9.00557 28 9.50002C28 9.82832 27.9353 10.1534 27.8097 10.4567C27.6841 10.76 27.4999 11.0356 27.2678 11.2678C27.0356 11.4999 26.76 11.6841 26.4567 11.8097C26.1534 11.9354 25.8283 12 25.5 12ZM25.5 9.00002C25.4011 9.00002 25.3044 9.02934 25.2222 9.08428C25.14 9.13923 25.0759 9.21732 25.0381 9.30868C25.0002 9.40004 24.9903 9.50058 25.0096 9.59757C25.0289 9.69456 25.0765 9.78365 25.1464 9.85357C25.2164 9.9235 25.3055 9.97112 25.4025 9.99041C25.4994 10.0097 25.6 9.9998 25.6913 9.96196C25.7827 9.92412 25.8608 9.86003 25.9157 9.77781C25.9707 9.69558 26 9.59891 26 9.50002C26 9.36741 25.9473 9.24023 25.8535 9.14647C25.7598 9.0527 25.6326 9.00002 25.5 9.00002ZM17 25C16.0111 25 15.0444 24.7068 14.2221 24.1574C13.3999 23.608 12.759 22.8271 12.3806 21.9134C12.0022 20.9998 11.9031 19.9945 12.0961 19.0246C12.289 18.0547 12.7652 17.1637 13.4645 16.4645C14.1637 15.7652 15.0546 15.289 16.0245 15.0961C16.9944 14.9032 17.9998 15.0022 18.9134 15.3806C19.827 15.7591 20.6079 16.3999 21.1573 17.2222C21.7068 18.0444 22 19.0111 22 20C22 21.3261 21.4732 22.5979 20.5355 23.5356C19.5978 24.4732 18.3261 25 17 25ZM17 17C16.4067 17 15.8266 17.176 15.3333 17.5056C14.8399 17.8353 14.4554 18.3038 14.2284 18.852C14.0013 19.4001 13.9419 20.0033 14.0576 20.5853C14.1734 21.1672 14.4591 21.7018 14.8787 22.1213C15.2982 22.5409 15.8328 22.8266 16.4147 22.9424C16.9967 23.0581 17.5999 22.9987 18.148 22.7717C18.6962 22.5446 19.1648 22.1601 19.4944 21.6667C19.8241 21.1734 20 20.5934 20 20C20 19.2044 19.6839 18.4413 19.1213 17.8787C18.5587 17.3161 17.7956 17 17 17ZM15 36.5C15 36.9945 14.8534 37.4778 14.5787 37.8889C14.304 38.3001 13.9135 38.6205 13.4567 38.8097C12.9999 38.9989 12.4972 39.0484 12.0123 38.952C11.5273 38.8555 11.0819 38.6174 10.7322 38.2678C10.3826 37.9182 10.1445 37.4727 10.048 36.9877C9.95157 36.5028 10.0011 36.0001 10.1903 35.5433C10.3795 35.0865 10.6999 34.696 11.1111 34.4213C11.5222 34.1466 12.0055 34 12.5 34C13.163 34 13.7989 34.2634 14.2678 34.7323C14.7366 35.2011 15 35.837 15 36.5ZM12 36.5C12 36.5989 12.0293 36.6956 12.0843 36.7778C12.1392 36.86 12.2173 36.9241 12.3087 36.962C12.4 36.9998 12.5006 37.0097 12.5975 36.9904C12.6945 36.9711 12.7836 36.9235 12.8535 36.8536C12.9235 36.7836 12.9711 36.6946 12.9904 36.5976C13.0097 36.5006 12.9998 36.4 12.9619 36.3087C12.9241 36.2173 12.86 36.1392 12.7778 36.0843C12.6956 36.0293 12.5989 36 12.5 36C12.3674 36 12.2402 36.0527 12.1464 36.1465C12.0527 36.2402 12 36.3674 12 36.5ZM23.5 30C23.9944 30 24.4778 30.1466 24.8889 30.4213C25.3 30.6961 25.6205 31.0865 25.8097 31.5433C25.9989 32.0001 26.0484 32.5028 25.952 32.9877C25.8555 33.4727 25.6174 33.9182 25.2678 34.2678C24.9181 34.6174 24.4727 34.8555 23.9877 34.952C23.5028 35.0484 23.0001 34.9989 22.5433 34.8097C22.0865 34.6205 21.696 34.3001 21.4213 33.8889C21.1466 33.4778 21 32.9945 21 32.5C21 31.837 21.2634 31.2011 21.7322 30.7323C22.2011 30.2634 22.837 30 23.5 30ZM23.5 33C23.5989 33 23.6956 32.9707 23.7778 32.9158C23.86 32.8608 23.9241 32.7827 23.9619 32.6914C23.9998 32.6 24.0097 32.4995 23.9904 32.4025C23.9711 32.3055 23.9235 32.2164 23.8535 32.1465C23.7836 32.0765 23.6945 32.0289 23.5975 32.0096C23.5006 31.9903 23.4 32.0002 23.3087 32.0381C23.2173 32.0759 23.1392 32.14 23.0843 32.2222C23.0293 32.3045 23 32.4011 23 32.5C23 32.6326 23.0527 32.7598 23.1464 32.8536C23.2402 32.9473 23.3674 33 23.5 33ZM32 14.5C32 14.0056 32.1466 13.5222 32.4213 13.1111C32.696 12.7 33.0865 12.3795 33.5433 12.1903C34.0001 12.0011 34.5028 11.9516 34.9877 12.0481C35.4727 12.1445 35.9181 12.3826 36.2678 12.7323C36.6174 13.0819 36.8555 13.5273 36.952 14.0123C37.0484 14.4972 36.9989 14.9999 36.8097 15.4567C36.6205 15.9135 36.3 16.304 35.8889 16.5787C35.4778 16.8534 34.9944 17 34.5 17C33.837 17 33.2011 16.7366 32.7322 16.2678C32.2634 15.7989 32 15.1631 32 14.5ZM34.5 15C34.5989 15 34.6956 14.9707 34.7778 14.9158C34.86 14.8608 34.9241 14.7827 34.9619 14.6914C34.9998 14.6 35.0097 14.4995 34.9904 14.4025C34.9711 14.3055 34.9235 14.2164 34.8535 14.1465C34.7836 14.0765 34.6945 14.0289 34.5975 14.0096C34.5006 13.9903 34.4 14.0002 34.3087 14.0381C34.2173 14.0759 34.1392 14.14 34.0843 14.2222C34.0293 14.3045 34 14.4011 34 14.5C34 14.6326 34.0527 14.7598 34.1464 14.8536C34.2402 14.9473 34.3674 15 34.5 15Z" fill="#03A9F4"/>
</svg>
