<svg width="46" height="46" viewBox="0 0 46 46" fill="none" xmlns="http://www.w3.org/2000/svg">
<path d="M40 44H6C4.93913 44 3.92172 43.5786 3.17157 42.8284C2.42143 42.0783 2 41.0609 2 40V6C2 4.93913 2.42143 3.92172 3.17157 3.17157C3.92172 2.42143 4.93913 2 6 2H40C41.0609 2 42.0783 2.42143 42.8284 3.17157C43.5786 3.92172 44 4.93913 44 6V40C44 41.0609 43.5786 42.0783 42.8284 42.8284C42.0783 43.5786 41.0609 44 40 44ZM42 6C42 5.46957 41.7893 4.96086 41.4142 4.58579C41.0391 4.21071 40.5304 4 40 4H6C5.46957 4 4.96086 4.21071 4.58579 4.58579C4.21071 4.96086 4 5.46957 4 6V40C4 40.5304 4.21071 41.0391 4.58579 41.4142C4.96086 41.7893 5.46957 42 6 42H40C40.5304 42 41.0391 41.7893 41.4142 41.4142C41.7893 41.0391 42 40.5304 42 40V6ZM35 40C34.0111 40 33.0444 39.7068 32.2221 39.1573C31.3999 38.6079 30.759 37.827 30.3806 36.9134C30.0022 35.9998 29.9031 34.9945 30.0961 34.0245C30.289 33.0546 30.7652 32.1637 31.4645 31.4645C32.1637 30.7652 33.0546 30.289 34.0245 30.0961C34.9945 29.9031 35.9998 30.0022 36.9134 30.3806C37.827 30.759 38.6079 31.3999 39.1573 32.2221C39.7068 33.0444 40 34.0111 40 35C40 36.3261 39.4732 37.5979 38.5355 38.5355C37.5979 39.4732 36.3261 40 35 40ZM35 32C34.4067 32 33.8266 32.1759 33.3333 32.5056C32.8399 32.8352 32.4554 33.3038 32.2284 33.852C32.0013 34.4001 31.9419 35.0033 32.0576 35.5853C32.1734 36.1672 32.4591 36.7018 32.8787 37.1213C33.2982 37.5409 33.8328 37.8266 34.4147 37.9424C34.9967 38.0581 35.5999 37.9987 36.148 37.7716C36.6962 37.5446 37.1648 37.1601 37.4944 36.6667C37.8241 36.1734 38 35.5933 38 35C38 34.2043 37.6839 33.4413 37.1213 32.8787C36.5587 32.3161 35.7957 32 35 32ZM35 28C34.0111 28 33.0444 27.7068 32.2221 27.1573C31.3999 26.6079 30.759 25.827 30.3806 24.9134C30.0022 23.9998 29.9031 22.9945 30.0961 22.0245C30.289 21.0546 30.7652 20.1637 31.4645 19.4645C32.1637 18.7652 33.0546 18.289 34.0245 18.0961C34.9945 17.9031 35.9998 18.0022 36.9134 18.3806C37.827 18.759 38.6079 19.3999 39.1573 20.2221C39.7068 21.0444 40 22.0111 40 23C40 24.3261 39.4732 25.5979 38.5355 26.5355C37.5979 27.4732 36.3261 28 35 28ZM35 20C34.4067 20 33.8266 20.1759 33.3333 20.5056C32.8399 20.8352 32.4554 21.3038 32.2284 21.8519C32.0013 22.4001 31.9419 23.0033 32.0576 23.5853C32.1734 24.1672 32.4591 24.7018 32.8787 25.1213C33.2982 25.5409 33.8328 25.8266 34.4147 25.9424C34.9967 26.0581 35.5999 25.9987 36.148 25.7716C36.6962 25.5446 37.1648 25.1601 37.4944 24.6667C37.8241 24.1734 38 23.5933 38 23C38 22.2044 37.6839 21.4413 37.1213 20.8787C36.5587 20.3161 35.7957 20 35 20ZM35 16C34.0111 16 33.0444 15.7068 32.2221 15.1573C31.3999 14.6079 30.759 13.827 30.3806 12.9134C30.0022 11.9998 29.9031 10.9945 30.0961 10.0245C30.289 9.05464 30.7652 8.16373 31.4645 7.46447C32.1637 6.7652 33.0546 6.289 34.0245 6.09607C34.9945 5.90315 35.9998 6.00216 36.9134 6.3806C37.827 6.75904 38.6079 7.3999 39.1573 8.22215C39.7068 9.04439 40 10.0111 40 11C40 12.3261 39.4732 13.5979 38.5355 14.5355C37.5979 15.4732 36.3261 16 35 16ZM35 8C34.4067 8 33.8266 8.17595 33.3333 8.50559C32.8399 8.83524 32.4554 9.30377 32.2284 9.85195C32.0013 10.4001 31.9419 11.0033 32.0576 11.5853C32.1734 12.1672 32.4591 12.7018 32.8787 13.1213C33.2982 13.5409 33.8328 13.8266 34.4147 13.9424C34.9967 14.0581 35.5999 13.9987 36.148 13.7716C36.6962 13.5446 37.1648 13.1601 37.4944 12.6667C37.8241 12.1734 38 11.5933 38 11C38 10.2044 37.6839 9.44129 37.1213 8.87868C36.5587 8.31607 35.7957 8 35 8ZM23 40C22.0111 40 21.0444 39.7068 20.2221 39.1573C19.3999 38.6079 18.759 37.827 18.3806 36.9134C18.0022 35.9998 17.9031 34.9945 18.0961 34.0245C18.289 33.0546 18.7652 32.1637 19.4645 31.4645C20.1637 30.7652 21.0546 30.289 22.0245 30.0961C22.9945 29.9031 23.9998 30.0022 24.9134 30.3806C25.827 30.759 26.6079 31.3999 27.1573 32.2221C27.7068 33.0444 28 34.0111 28 35C28 36.3261 27.4732 37.5979 26.5355 38.5355C25.5979 39.4732 24.3261 40 23 40ZM23 32C22.4067 32 21.8266 32.1759 21.3333 32.5056C20.8399 32.8352 20.4554 33.3038 20.2284 33.852C20.0013 34.4001 19.9419 35.0033 20.0576 35.5853C20.1734 36.1672 20.4591 36.7018 20.8787 37.1213C21.2982 37.5409 21.8328 37.8266 22.4147 37.9424C22.9967 38.0581 23.5999 37.9987 24.1481 37.7716C24.6962 37.5446 25.1648 37.1601 25.4944 36.6667C25.8241 36.1734 26 35.5933 26 35C26 34.2043 25.6839 33.4413 25.1213 32.8787C24.5587 32.3161 23.7956 32 23 32ZM23 28C22.0111 28 21.0444 27.7068 20.2221 27.1573C19.3999 26.6079 18.759 25.827 18.3806 24.9134C18.0022 23.9998 17.9031 22.9945 18.0961 22.0245C18.289 21.0546 18.7652 20.1637 19.4645 19.4645C20.1637 18.7652 21.0546 18.289 22.0245 18.0961C22.9945 17.9031 23.9998 18.0022 24.9134 18.3806C25.827 18.759 26.6079 19.3999 27.1573 20.2221C27.7068 21.0444 28 22.0111 28 23C28 24.3261 27.4732 25.5979 26.5355 26.5355C25.5979 27.4732 24.3261 28 23 28ZM23 20C22.4067 20 21.8266 20.1759 21.3333 20.5056C20.8399 20.8352 20.4554 21.3038 20.2284 21.8519C20.0013 22.4001 19.9419 23.0033 20.0576 23.5853C20.1734 24.1672 20.4591 24.7018 20.8787 25.1213C21.2982 25.5409 21.8328 25.8266 22.4147 25.9424C22.9967 26.0581 23.5999 25.9987 24.1481 25.7716C24.6962 25.5446 25.1648 25.1601 25.4944 24.6667C25.8241 24.1734 26 23.5933 26 23C26 22.2044 25.6839 21.4413 25.1213 20.8787C24.5587 20.3161 23.7956 20 23 20ZM23 16C22.0111 16 21.0444 15.7068 20.2221 15.1573C19.3999 14.6079 18.759 13.827 18.3806 12.9134C18.0022 11.9998 17.9031 10.9945 18.0961 10.0245C18.289 9.05464 18.7652 8.16373 19.4645 7.46447C20.1637 6.7652 21.0546 6.289 22.0245 6.09607C22.9945 5.90315 23.9998 6.00216 24.9134 6.3806C25.827 6.75904 26.6079 7.3999 27.1573 8.22215C27.7068 9.04439 28 10.0111 28 11C28 12.3261 27.4732 13.5979 26.5355 14.5355C25.5979 15.4732 24.3261 16 23 16ZM23 8C22.4067 8 21.8266 8.17595 21.3333 8.50559C20.8399 8.83524 20.4554 9.30377 20.2284 9.85195C20.0013 10.4001 19.9419 11.0033 20.0576 11.5853C20.1734 12.1672 20.4591 12.7018 20.8787 13.1213C21.2982 13.5409 21.8328 13.8266 22.4147 13.9424C22.9967 14.0581 23.5999 13.9987 24.1481 13.7716C24.6962 13.5446 25.1648 13.1601 25.4944 12.6667C25.8241 12.1734 26 11.5933 26 11C26 10.2044 25.6839 9.44129 25.1213 8.87868C24.5587 8.31607 23.7956 8 23 8ZM11 40C10.0111 40 9.04439 39.7068 8.22215 39.1573C7.3999 38.6079 6.75904 37.827 6.3806 36.9134C6.00216 35.9998 5.90315 34.9945 6.09607 34.0245C6.289 33.0546 6.7652 32.1637 7.46447 31.4645C8.16373 30.7652 9.05464 30.289 10.0245 30.0961C10.9945 29.9031 11.9998 30.0022 12.9134 30.3806C13.827 30.759 14.6079 31.3999 15.1573 32.2221C15.7068 33.0444 16 34.0111 16 35C16 36.3261 15.4732 37.5979 14.5355 38.5355C13.5979 39.4732 12.3261 40 11 40ZM11 32C10.4067 32 9.82664 32.1759 9.33329 32.5056C8.83994 32.8352 8.45542 33.3038 8.22836 33.852C8.0013 34.4001 7.94189 35.0033 8.05764 35.5853C8.1734 36.1672 8.45912 36.7018 8.87868 37.1213C9.29824 37.5409 9.83279 37.8266 10.4147 37.9424C10.9967 38.0581 11.5999 37.9987 12.1481 37.7716C12.6962 37.5446 13.1648 37.1601 13.4944 36.6667C13.8241 36.1734 14 35.5933 14 35C14 34.2043 13.6839 33.4413 13.1213 32.8787C12.5587 32.3161 11.7956 32 11 32ZM11 28C10.0111 28 9.04439 27.7068 8.22215 27.1573C7.3999 26.6079 6.75904 25.827 6.3806 24.9134C6.00216 23.9998 5.90315 22.9945 6.09607 22.0245C6.289 21.0546 6.7652 20.1637 7.46447 19.4645C8.16373 18.7652 9.05464 18.289 10.0245 18.0961C10.9945 17.9031 11.9998 18.0022 12.9134 18.3806C13.827 18.759 14.6079 19.3999 15.1573 20.2221C15.7068 21.0444 16 22.0111 16 23C16 24.3261 15.4732 25.5979 14.5355 26.5355C13.5979 27.4732 12.3261 28 11 28ZM11 20C10.4067 20 9.82664 20.1759 9.33329 20.5056C8.83994 20.8352 8.45542 21.3038 8.22836 21.8519C8.0013 22.4001 7.94189 23.0033 8.05764 23.5853C8.1734 24.1672 8.45912 24.7018 8.87868 25.1213C9.29824 25.5409 9.83279 25.8266 10.4147 25.9424C10.9967 26.0581 11.5999 25.9987 12.1481 25.7716C12.6962 25.5446 13.1648 25.1601 13.4944 24.6667C13.8241 24.1734 14 23.5933 14 23C14 22.2044 13.6839 21.4413 13.1213 20.8787C12.5587 20.3161 11.7956 20 11 20ZM11 16C10.0111 16 9.04439 15.7068 8.22215 15.1573C7.3999 14.6079 6.75904 13.827 6.3806 12.9134C6.00216 11.9998 5.90315 10.9945 6.09607 10.0245C6.289 9.05464 6.7652 8.16373 7.46447 7.46447C8.16373 6.7652 9.05464 6.289 10.0245 6.09607C10.9945 5.90315 11.9998 6.00216 12.9134 6.3806C13.827 6.75904 14.6079 7.3999 15.1573 8.22215C15.7068 9.04439 16 10.0111 16 11C16 12.3261 15.4732 13.5979 14.5355 14.5355C13.5979 15.4732 12.3261 16 11 16ZM11 8C10.4067 8 9.82664 8.17595 9.33329 8.50559C8.83994 8.83524 8.45542 9.30377 8.22836 9.85195C8.0013 10.4001 7.94189 11.0033 8.05764 11.5853C8.1734 12.1672 8.45912 12.7018 8.87868 13.1213C9.29824 13.5409 9.83279 13.8266 10.4147 13.9424C10.9967 14.0581 11.5999 13.9987 12.1481 13.7716C12.6962 13.5446 13.1648 13.1601 13.4944 12.6667C13.8241 12.1734 14 11.5933 14 11C14 10.2044 13.6839 9.44129 13.1213 8.87868C12.5587 8.31607 11.7956 8 11 8Z" fill="#03A9F4"/>
</svg>
