<svg width="46" height="46" viewBox="0 0 46 46" fill="none" xmlns="http://www.w3.org/2000/svg">
<path d="M40 44H18C16.9391 44 15.9217 43.5786 15.1716 42.8284C14.4214 42.0783 14 41.0609 14 40V14H6C4.93913 14 3.92172 13.5786 3.17157 12.8284C2.42143 12.0783 2 11.0609 2 10V6C2 4.93913 2.42143 3.92172 3.17157 3.17157C3.92172 2.42143 4.93913 2 6 2H40C41.0609 2 42.0783 2.42143 42.8284 3.17157C43.5786 3.92172 44 4.93913 44 6V40C44 41.0609 43.5786 42.0783 42.8284 42.8284C42.0783 43.5786 41.0609 44 40 44ZM6 4C5.46957 4 4.96086 4.21071 4.58579 4.58579C4.21071 4.96086 4 5.46957 4 6V10C4 10.5304 4.21071 11.0391 4.58579 11.4142C4.96086 11.7893 5.46957 12 6 12H14V4H6ZM42 6C42 5.46957 41.7893 4.96086 41.4142 4.58579C41.0391 4.21071 40.5304 4 40 4H16V12H42V6ZM42 14H16V40C16 40.5304 16.2107 41.0391 16.5858 41.4142C16.9609 41.7893 17.4696 42 18 42H40C40.5304 42 41.0391 41.7893 41.4142 41.4142C41.7893 41.0391 42 40.5304 42 40V14ZM20 36H38V38H20V36ZM20 30H38V32H20V30ZM20 24H38V26H20V24ZM20 18H38V20H20V18ZM38 10H20V8H38V10Z" fill="#03A9F4"/>
</svg>
