<svg width="46" height="46" viewBox="0 0 46 46" fill="none" xmlns="http://www.w3.org/2000/svg">
<path d="M40 44H6C4.93913 44 3.92172 43.5786 3.17157 42.8284C2.42143 42.0783 2 41.0609 2 40V6C2 4.93913 2.42143 3.92172 3.17157 3.17157C3.92172 2.42143 4.93913 2 6 2H40C41.0609 2 42.0783 2.42143 42.8284 3.17157C43.5786 3.92172 44 4.93913 44 6V40C44 41.0609 43.5786 42.0783 42.8284 42.8284C42.0783 43.5786 41.0609 44 40 44ZM42 6C42 5.46957 41.7893 4.96086 41.4142 4.58579C41.0391 4.21071 40.5304 4 40 4H6C5.46957 4 4.96086 4.21071 4.58579 4.58579C4.21071 4.96086 4 5.46957 4 6V40C4 40.5304 4.21071 41.0391 4.58579 41.4142C4.96086 41.7893 5.46957 42 6 42H40C40.5304 42 41.0391 41.7893 41.4142 41.4142C41.7893 41.0391 42 40.5304 42 40V6ZM33 33.328L32 38L27.395 35.549C26.6034 35.6803 25.8024 35.7472 25 35.749C21.149 35.749 19.381 35.327 17 32.999C17.392 33.021 18.1 32.999 18.5 32.999C19.058 32.999 19.455 33.043 20 32.999C21.879 34.293 22.41 33.999 25 33.999C25.8695 33.9965 26.7364 33.9044 27.587 33.724L31 36V32.456C32.4881 31.593 33.7294 30.3621 34.605 28.8814C35.4805 27.4006 35.9609 25.7198 36 24C35.9774 22.0765 35.2057 20.2376 33.849 18.874C33.9446 18.2538 33.9951 17.6275 34 17C34 16.709 33.968 16.425 33.949 16.139C35.1821 17.0507 36.1888 18.2339 36.8913 19.597C37.5938 20.9602 37.9731 22.4667 38 24C37.9683 25.8404 37.4981 27.6466 36.6285 29.2689C35.759 30.8912 34.515 32.2827 33 33.328ZM20 31C19.2064 30.9773 18.4161 30.8894 17.637 30.737L12 34V28.328C10.7005 27.1533 9.6702 25.7115 8.9798 24.1015C8.2894 22.4915 7.95517 20.7512 8 19C8 12.718 12.81 8 20 8C25.977 8 32 12.718 32 19C32.0182 20.5809 31.7203 22.1495 31.1237 23.6137C30.5271 25.0778 29.6439 26.4079 28.5259 27.5259C27.4079 28.6439 26.0778 29.5271 24.6137 30.1237C23.1495 30.7203 21.5809 31.0182 20 31ZM20 10C13.753 10 10 13.754 10 19C10.0043 20.6168 10.365 22.2128 11.0564 23.6744C11.7477 25.1359 12.7528 26.4271 14 27.456V31L17.413 28.725C18.2636 28.9054 19.1305 28.9975 20 29C21.3199 29.0241 22.631 28.782 23.8552 28.288C25.0794 27.794 26.1914 27.0583 27.1248 26.1248C28.0583 25.1914 28.794 24.0794 29.288 22.8552C29.782 21.631 30.0241 20.3199 30 19C30 13.754 24.973 10 20 10ZM24 19C24 18.6044 24.1173 18.2178 24.3371 17.8889C24.5568 17.56 24.8692 17.3036 25.2346 17.1522C25.6001 17.0009 26.0022 16.9613 26.3902 17.0384C26.7781 17.1156 27.1345 17.3061 27.4142 17.5858C27.6939 17.8655 27.8844 18.2219 27.9616 18.6098C28.0387 18.9978 27.9991 19.3999 27.8478 19.7654C27.6964 20.1308 27.44 20.4432 27.1111 20.6629C26.7822 20.8827 26.3956 21 26 21C25.4696 21 24.9609 20.7893 24.5858 20.4142C24.2107 20.0391 24 19.5304 24 19ZM20 21C19.6044 21 19.2178 20.8827 18.8889 20.6629C18.56 20.4432 18.3036 20.1308 18.1522 19.7654C18.0009 19.3999 17.9613 18.9978 18.0384 18.6098C18.1156 18.2219 18.3061 17.8655 18.5858 17.5858C18.8655 17.3061 19.2219 17.1156 19.6098 17.0384C19.9978 16.9613 20.3999 17.0009 20.7654 17.1522C21.1308 17.3036 21.4432 17.56 21.6629 17.8889C21.8827 18.2178 22 18.6044 22 19C22 19.5304 21.7893 20.0391 21.4142 20.4142C21.0391 20.7893 20.5304 21 20 21ZM14 21C13.6044 21 13.2178 20.8827 12.8889 20.6629C12.56 20.4432 12.3036 20.1308 12.1522 19.7654C12.0009 19.3999 11.9613 18.9978 12.0384 18.6098C12.1156 18.2219 12.3061 17.8655 12.5858 17.5858C12.8655 17.3061 13.2219 17.1156 13.6098 17.0384C13.9978 16.9613 14.3999 17.0009 14.7654 17.1522C15.1308 17.3036 15.4432 17.56 15.6629 17.8889C15.8827 18.2178 16 18.6044 16 19C16 19.5304 15.7893 20.0391 15.4142 20.4142C15.0391 20.7893 14.5304 21 14 21Z" fill="#03A9F4"/>
</svg>
