<svg width="46" height="46" viewBox="0 0 46 46" fill="none" xmlns="http://www.w3.org/2000/svg">
<path d="M35 19L40 24H37L35 22V33C35 34.1 34.1 35 33 35H22L24 37V40L19 35L18 34L19 33L24 28V31L22 33H32C32.6 33 33 32.6 33 32V22L31 24H28L33 19L34 18L35 19ZM44 7V39C44 41.8 41.8 44 39 44H7C4.2 44 2 41.8 2 39V14V12V7C2 4.2 4.2 2 7 2H39C41.8 2 44 4.2 44 7ZM39 4H14V12H42V7C42 5.3 40.7 4 39 4ZM4 12H12V4H7C5.3 4 4 5.3 4 7V12ZM7 42H12V14H4V39C4 40.7 5.4 42 7 42ZM42 39V14H14V42H39C40.7 42 42 40.7 42 39Z" fill="#03A9F4"/>
</svg>
