<svg width="46" height="46" viewBox="0 0 46 46" fill="none" xmlns="http://www.w3.org/2000/svg">
<path d="M40 44H6C4.93913 44 3.92172 43.5786 3.17157 42.8284C2.42143 42.0783 2 41.0609 2 40V6C2 4.93913 2.42143 3.92172 3.17157 3.17157C3.92172 2.42143 4.93913 2 6 2H40C41.0609 2 42.0783 2.42143 42.8284 3.17157C43.5786 3.92172 44 4.93913 44 6V40C44 41.0609 43.5786 42.0783 42.8284 42.8284C42.0783 43.5786 41.0609 44 40 44ZM42 6C42 5.46957 41.7893 4.96086 41.4142 4.58579C41.0391 4.21071 40.5304 4 40 4H6C5.46957 4 4.96086 4.21071 4.58579 4.58579C4.21071 4.96086 4 5.46957 4 6V40C4 40.5304 4.21071 41.0391 4.58579 41.4142C4.96086 41.7893 5.46957 42 6 42H40C40.5304 42 41.0391 41.7893 41.4142 41.4142C41.7893 41.0391 42 40.5304 42 40V6ZM36 40H10C8.93913 40 7.92172 39.5786 7.17157 38.8284C6.42143 38.0783 6 37.0609 6 36V10C6 8.93913 6.42143 7.92172 7.17157 7.17157C7.92172 6.42143 8.93913 6 10 6H36C37.0609 6 38.0783 6.42143 38.8284 7.17157C39.5786 7.92172 40 8.93913 40 10V36C40 37.0609 39.5786 38.0783 38.8284 38.8284C38.0783 39.5786 37.0609 40 36 40ZM38 10C38 9.46957 37.7893 8.96086 37.4142 8.58579C37.0391 8.21071 36.5304 8 36 8H10C9.46957 8 8.96086 8.21071 8.58579 8.58579C8.21071 8.96086 8 9.46957 8 10V36C8 36.5304 8.21071 37.0391 8.58579 37.4142C8.96086 37.7893 9.46957 38 10 38H36C36.5304 38 37.0391 37.7893 37.4142 37.4142C37.7893 37.0391 38 36.5304 38 36V10ZM35 21C34.7348 21 34.4804 20.8946 34.2929 20.7071C34.1054 20.5196 34 20.2652 34 20L34.032 13.425L27.244 20.212L25.83 18.8L32.63 12H26C25.7348 12 25.4804 11.8946 25.2929 11.7071C25.1054 11.5196 25 11.2652 25 11C25 10.7348 25.1054 10.4804 25.2929 10.2929C25.4804 10.1054 25.7348 10 26 10H34.972C35.1047 9.99995 35.2361 10.0265 35.3583 10.078C35.4806 10.1295 35.5914 10.205 35.684 10.3C35.7854 10.3859 35.8663 10.4932 35.921 10.6143C35.9757 10.7354 36.0027 10.8672 36 11V20C36 20.2652 35.8946 20.5196 35.7071 20.7071C35.5196 20.8946 35.2652 21 35 21ZM20 36H11.028C10.8954 35.9997 10.7641 35.973 10.6419 35.9215C10.5196 35.87 10.4089 35.7947 10.316 35.7C10.2146 35.6142 10.1336 35.5068 10.0789 35.3857C10.0242 35.2646 9.99728 35.1328 10 35V26C10 25.7348 10.1054 25.4804 10.2929 25.2929C10.4804 25.1054 10.7348 25 11 25C11.2652 25 11.5196 25.1054 11.7071 25.2929C11.8946 25.4804 12 25.7348 12 26L11.968 32.575L18.756 25.788L20.17 27.2L13.37 34H20C20.2652 34 20.5196 34.1054 20.7071 34.2929C20.8946 34.4804 21 34.7348 21 35C21 35.2652 20.8946 35.5196 20.7071 35.7071C20.5196 35.8946 20.2652 36 20 36Z" fill="#03A9F4"/>
</svg>
