<svg width="46" height="46" viewBox="0 0 46 46" fill="none" xmlns="http://www.w3.org/2000/svg">
<path fill-rule="evenodd" clip-rule="evenodd" d="M40 44H6C4.93913 44 3.92172 43.5786 3.17157 42.8284C2.42143 42.0783 2 41.0609 2 40V6C2 4.93913 2.42143 3.92172 3.17157 3.17157C3.92172 2.42143 4.93913 2 6 2H40C41.0609 2 42.0783 2.42143 42.8284 3.17157C43.5786 3.92172 44 4.93913 44 6V40C44 41.0609 43.5786 42.0783 42.8284 42.8284C42.0783 43.5786 41.0609 44 40 44ZM4.58579 4.58579C4.96086 4.21071 5.46957 4 6 4H40C40.5304 4 41.0391 4.21071 41.4142 4.58579C41.7893 4.96086 42 5.46957 42 6V40C42 40.5304 41.7893 41.0391 41.4142 41.4142C41.0391 41.7893 40.5304 42 40 42H6C5.46957 42 4.96086 41.7893 4.58579 41.4142C4.21071 41.0391 4 40.5304 4 40V6C4 5.46957 4.21071 4.96086 4.58579 4.58579ZM20 8H8V34H20V8ZM8 6C6.89543 6 6 6.89543 6 8V34C6 35.1046 6.89543 36 8 36H20C21.1046 36 22 35.1046 22 34V8C22 6.89543 21.1046 6 20 6H8ZM26 8H38V34H26V8ZM24 8C24 6.89543 24.8954 6 26 6H38C39.1046 6 40 6.89543 40 8V34C40 35.1046 39.1046 36 38 36H26C24.8954 36 24 35.1046 24 34V8ZM28 11H36V13H28V11ZM36 17H28V19H36V17ZM28 23H36V25H28V23ZM36 29H28V31H36V29ZM16 12H12V14H16V12ZM12 10C10.8954 10 10 10.8954 10 12V14C10 15.1046 10.8954 16 12 16H16C17.1046 16 18 15.1046 18 14V12C18 10.8954 17.1046 10 16 10H12ZM12 24H16V26H12V24ZM10 24C10 22.8954 10.8954 22 12 22H16C17.1046 22 18 22.8954 18 24V26C18 27.1046 17.1046 28 16 28H12C10.8954 28 10 27.1046 10 26V24ZM10 17H18V19H10V17ZM18 29H10V31H18V29ZM6 38H22V40H6V38ZM40 38H24V40H40V38Z" fill="#03A9F4"/>
</svg>
