<svg width="46" height="46" viewBox="0 0 46 46" fill="none" xmlns="http://www.w3.org/2000/svg">
<path d="M40 44H6C4.93913 44 3.92172 43.5786 3.17157 42.8284C2.42143 42.0783 2 41.0609 2 40V6C2 4.93913 2.42143 3.92172 3.17157 3.17157C3.92172 2.42143 4.93913 2 6 2H40C41.0609 2 42.0783 2.42143 42.8284 3.17157C43.5786 3.92172 44 4.93913 44 6V40C44 41.0609 43.5786 42.0783 42.8284 42.8284C42.0783 43.5786 41.0609 44 40 44ZM4 40C4 40.5304 4.21071 41.0391 4.58579 41.4142C4.96086 41.7893 5.46957 42 6 42H18V16H4V40ZM4 6V14H18V4H6C5.46957 4 4.96086 4.21071 4.58579 4.58579C4.21071 4.96086 4 5.46957 4 6ZM42 6C42 5.46957 41.7893 4.96086 41.4142 4.58579C41.0391 4.21071 40.5304 4 40 4H20V42H40C40.5304 42 41.0391 41.7893 41.4142 41.4142C41.7893 41.0391 42 40.5304 42 40V6ZM15.5 12H8.5C8.36739 12 8.24021 11.9473 8.14645 11.8536C8.05268 11.7598 8 11.6326 8 11.5V10.5C8 10.3674 8.05268 10.2402 8.14645 10.1464C8.24021 10.0527 8.36739 10 8.5 10H15.5C15.6326 10 15.7598 10.0527 15.8536 10.1464C15.9473 10.2402 16 10.3674 16 10.5V11.5C16 11.6326 15.9473 11.7598 15.8536 11.8536C15.7598 11.9473 15.6326 12 15.5 12ZM15.5 36H8.5C8.36739 36 8.24021 35.9473 8.14645 35.8536C8.05268 35.7598 8 35.6326 8 35.5V34.5C8 34.3674 8.05268 34.2402 8.14645 34.1464C8.24021 34.0527 8.36739 34 8.5 34H15.5C15.6326 34 15.7598 34.0527 15.8536 34.1464C15.9473 34.2402 16 34.3674 16 34.5V35.5C16 35.6326 15.9473 35.7598 15.8536 35.8536C15.7598 35.9473 15.6326 36 15.5 36ZM15.5 30H8.5C8.36739 30 8.24021 29.9473 8.14645 29.8536C8.05268 29.7598 8 29.6326 8 29.5V28.5C8 28.3674 8.05268 28.2402 8.14645 28.1464C8.24021 28.0527 8.36739 28 8.5 28H15.5C15.6326 28 15.7598 28.0527 15.8536 28.1464C15.9473 28.2402 16 28.3674 16 28.5V29.5C16 29.6326 15.9473 29.7598 15.8536 29.8536C15.7598 29.9473 15.6326 30 15.5 30ZM15.5 24H8.5C8.36739 24 8.24021 23.9473 8.14645 23.8536C8.05268 23.7598 8 23.6326 8 23.5V22.5C8 22.3674 8.05268 22.2402 8.14645 22.1464C8.24021 22.0527 8.36739 22 8.5 22H15.5C15.6326 22 15.7598 22.0527 15.8536 22.1464C15.9473 22.2402 16 22.3674 16 22.5V23.5C16 23.6326 15.9473 23.7598 15.8536 23.8536C15.7598 23.9473 15.6326 24 15.5 24Z" fill="#03A9F4"/>
</svg>
