<svg width="46" height="46" viewBox="0 0 46 46" fill="none" xmlns="http://www.w3.org/2000/svg">
<path fill-rule="evenodd" clip-rule="evenodd" d="M6 44C4.93913 44 3.92172 43.5786 3.17157 42.8284C2.42143 42.0783 2 41.0609 2 40V6C2 4.93913 2.42143 3.92172 3.17157 3.17157C3.92172 2.42143 4.93913 2 6 2H40C41.0609 2 42.0783 2.42143 42.8284 3.17157C43.5786 3.92172 44 4.93913 44 6V40C44 41.0609 43.5786 42.0783 42.8284 42.8284C42.0783 43.5786 41.0609 44 40 44H6ZM4.58579 4.58579C4.96086 4.21071 5.46957 4 6 4H40C40.5304 4 41.0391 4.21071 41.4142 4.58579C41.7893 4.96086 42 5.46957 42 6V40C42 40.5304 41.7893 41.0391 41.4142 41.4142C41.0391 41.7893 40.5304 42 40 42H6C5.46957 42 4.96086 41.7893 4.58579 41.4142C4.21071 41.0391 4 40.5304 4 40V6C4 5.46957 4.21071 4.96086 4.58579 4.58579ZM23 24C26.866 24 30 20.866 30 17C30 13.134 26.866 10 23 10C19.134 10 16 13.134 16 17C16 20.866 19.134 24 23 24ZM23 26C27.9706 26 32 21.9706 32 17C32 12.0294 27.9706 8 23 8C18.0294 8 14 12.0294 14 17C14 21.9706 18.0294 26 23 26ZM22 18V12H24V16H27V18H24H22ZM30.7324 30H38V32H30.7324C30.3866 32.5978 29.7403 33 29 33C28.2597 33 27.6134 32.5978 27.2676 32H8V30H27.2676C27.6134 29.4022 28.2597 29 29 29C29.7403 29 30.3866 29.4022 30.7324 30ZM16.7324 36H38V38H16.7324C16.3866 38.5978 15.7403 39 15 39C14.2597 39 13.6134 38.5978 13.2676 38H8V36H13.2676C13.6134 35.4022 14.2597 35 15 35C15.7403 35 16.3866 35.4022 16.7324 36Z" fill="#03A9F4"/>
</svg>
