<svg width="46" height="46" viewBox="0 0 46 46" fill="none" xmlns="http://www.w3.org/2000/svg">
<path d="M40 16H6C4.93913 16 3.92172 15.5786 3.17157 14.8284C2.42143 14.0783 2 13.0609 2 12V6C2 4.93913 2.42143 3.92172 3.17157 3.17157C3.92172 2.42143 4.93913 2 6 2H40C41.0609 2 42.0783 2.42143 42.8284 3.17157C43.5786 3.92172 44 4.93913 44 6V12C44 13.0609 43.5786 14.0783 42.8284 14.8284C42.0783 15.5786 41.0609 16 40 16ZM42 6C42 5.46957 41.7893 4.96086 41.4142 4.58579C41.0391 4.21071 40.5304 4 40 4H6C5.46957 4 4.96086 4.21071 4.58579 4.58579C4.21071 4.96086 4 5.46957 4 6V12C4 12.5304 4.21071 13.0391 4.58579 13.4142C4.96086 13.7893 5.46957 14 6 14H40C40.5304 14 41.0391 13.7893 41.4142 13.4142C41.7893 13.0391 42 12.5304 42 12V6ZM35 12C34.4067 12 33.8266 11.8241 33.3333 11.4944C32.8399 11.1648 32.4554 10.6962 32.2284 10.1481C32.0013 9.59987 31.9419 8.99667 32.0576 8.41473C32.1734 7.83279 32.4591 7.29824 32.8787 6.87868C33.2982 6.45912 33.8328 6.1734 34.4147 6.05764C34.9967 5.94189 35.5999 6.0013 36.148 6.22836C36.6962 6.45542 37.1648 6.83994 37.4944 7.33329C37.8241 7.82664 38 8.40666 38 9C38 9.79565 37.6839 10.5587 37.1213 11.1213C36.5587 11.6839 35.7957 12 35 12ZM35 8C34.8022 8 34.6089 8.05865 34.4444 8.16853C34.28 8.27841 34.1518 8.43459 34.0761 8.61732C34.0004 8.80004 33.9806 9.00111 34.0192 9.19509C34.0578 9.38907 34.153 9.56725 34.2929 9.70711C34.4327 9.84696 34.6109 9.9422 34.8049 9.98079C34.9989 10.0194 35.2 9.99957 35.3827 9.92388C35.5654 9.84819 35.7216 9.72002 35.8315 9.55557C35.9414 9.39112 36 9.19778 36 9C36 8.73478 35.8946 8.48043 35.7071 8.29289C35.5196 8.10536 35.2652 8 35 8ZM23 12C22.4067 12 21.8266 11.8241 21.3333 11.4944C20.8399 11.1648 20.4554 10.6962 20.2284 10.1481C20.0013 9.59987 19.9419 8.99667 20.0576 8.41473C20.1734 7.83279 20.4591 7.29824 20.8787 6.87868C21.2982 6.45912 21.8328 6.1734 22.4147 6.05764C22.9967 5.94189 23.5999 6.0013 24.1481 6.22836C24.6962 6.45542 25.1648 6.83994 25.4944 7.33329C25.8241 7.82664 26 8.40666 26 9C26 9.79565 25.6839 10.5587 25.1213 11.1213C24.5587 11.6839 23.7956 12 23 12ZM23 8C22.8022 8 22.6089 8.05865 22.4444 8.16853C22.28 8.27841 22.1518 8.43459 22.0761 8.61732C22.0004 8.80004 21.9806 9.00111 22.0192 9.19509C22.0578 9.38907 22.153 9.56725 22.2929 9.70711C22.4327 9.84696 22.6109 9.9422 22.8049 9.98079C22.9989 10.0194 23.2 9.99957 23.3827 9.92388C23.5654 9.84819 23.7216 9.72002 23.8315 9.55557C23.9414 9.39112 24 9.19778 24 9C24 8.73478 23.8946 8.48043 23.7071 8.29289C23.5196 8.10536 23.2652 8 23 8ZM11 12C10.4067 12 9.82664 11.8241 9.33329 11.4944C8.83994 11.1648 8.45542 10.6962 8.22836 10.1481C8.0013 9.59987 7.94189 8.99667 8.05764 8.41473C8.1734 7.83279 8.45912 7.29824 8.87868 6.87868C9.29824 6.45912 9.83279 6.1734 10.4147 6.05764C10.9967 5.94189 11.5999 6.0013 12.1481 6.22836C12.6962 6.45542 13.1648 6.83994 13.4944 7.33329C13.8241 7.82664 14 8.40666 14 9C14 9.79565 13.6839 10.5587 13.1213 11.1213C12.5587 11.6839 11.7956 12 11 12ZM11 8C10.8022 8 10.6089 8.05865 10.4444 8.16853C10.28 8.27841 10.1518 8.43459 10.0761 8.61732C10.0004 8.80004 9.98063 9.00111 10.0192 9.19509C10.0578 9.38907 10.153 9.56725 10.2929 9.70711C10.4327 9.84696 10.6109 9.9422 10.8049 9.98079C10.9989 10.0194 11.2 9.99957 11.3827 9.92388C11.5654 9.84819 11.7216 9.72002 11.8315 9.55557C11.9414 9.39112 12 9.19778 12 9C12 8.73478 11.8946 8.48043 11.7071 8.29289C11.5196 8.10536 11.2652 8 11 8ZM10 22H8V20H10V22ZM10 28H8V26H10V28ZM10 34H8V32H10V34ZM10 40H8V38H10V40ZM40 22H14V20H40V22ZM40 28H14V26H40V28ZM40 34H14V32H40V34ZM40 40H14V38H40V40Z" fill="#03A9F4"/>
</svg>
