<svg width="118" height="35" viewBox="0 0 118 35" fill="none" xmlns="http://www.w3.org/2000/svg">
<path fill-rule="evenodd" clip-rule="evenodd" d="M31 17.5C31 20.8 30.3 23.7 28.9 26.3C27.5 28.9 25.7 30.9 23.5 32.2C21.7 33.4 19.7 34.1 17.6 34.5C15.5 34.8 13.2 35 10.8 35H0V0H10.8C13.2 0 15.5 0.2 17.7 0.5C19.8 0.8 21.8 1.6 23.7 2.8C26 4.3 27.8 6.3 29.1 8.8C30.3 11.2 31 14.2 31 17.5ZM46 35L54 22.6V12L46 0V12.4H35V0H26V3.8C27.6 5.1 29 6.7 30 8.7C31.3 11.2 32 14.1 32 17.5C32 20.8 31.3 23.7 29.9 26.3C28.8 28.2 27.5 29.8 26 31.1V35H35V20.3H46V35ZM63.5 22.6L70.1 35H80L67.9 16.9L80 0H70.1L63.5 10.2L56.9 0H47L58 16.9L47 35H56.9L63.5 22.6ZM17.6 7.8C19.2 8.7 20.4 10 21.2 11.6C22 13.2 22.4 15.2 22.5 17.4C22.5 19.8 22.1 21.7 21.4 23.3C20.6 24.9 19.5 26.2 18.1 27.1C16.9 27.9 15.6 28.3 14.3 28.4C12.9 28.5 11.3 28.5 9.3 28.5H9.1V6.6H9.3C11.1 6.6 12.6 6.6 13.9 6.7C15.2 6.8 16.4 7.1 17.6 7.8Z" fill="#2095F3"/>
<path d="M105.878 0H105.747C105.032 0.0140007 104.272 0.177809 103.499 0.452222C101.944 0.999648 100.259 2.0154 98.5436 3.44767C98.2079 3.72838 97.8649 4.02939 97.5219 4.34441C97.2957 4.1344 97.0694 3.93839 96.8432 3.74238C95.026 2.19671 93.238 1.10955 91.6032 0.523625C90.7859 0.231011 89.9904 0.0553026 89.246 0.0385018C88.5016 0.021001 87.8083 0.161008 87.2026 0.499824C86.0203 1.15296 85.3781 2.43962 85.1007 4.00139C84.8161 5.57227 84.8891 7.47636 85.327 9.61846C85.4146 10.0455 85.5167 10.4795 85.6335 10.9275C85.1081 11.0675 84.5972 11.2215 84.1155 11.3825C81.9896 12.0896 80.2702 12.9856 79.0354 13.9937C77.8006 15.0087 77 16.1848 77 17.4658C77 18.7889 77.8415 20.014 79.1427 21.078C80.4439 22.1491 82.2596 23.1011 84.5023 23.8291C84.8599 23.9482 85.2248 24.0602 85.6043 24.1652C85.4802 24.6412 85.3708 25.1102 85.2832 25.5652C84.8672 27.6863 84.8161 29.5624 85.1081 31.0955C85.4073 32.6286 86.0714 33.8816 87.2318 34.5187C88.4213 35.1837 89.9466 35.0927 91.5668 34.5467C93.1796 34.0006 94.9384 32.9646 96.7191 31.4665C97.0037 31.2285 97.2884 30.9765 97.573 30.7105C97.9452 31.0535 98.3174 31.3825 98.6896 31.6835C100.39 33.0906 102.054 34.0706 103.587 34.5887C105.119 35.1067 106.586 35.1837 107.739 34.5397C108.936 33.8746 109.615 32.5656 109.928 30.9485C110.242 29.3314 110.184 27.3503 109.724 25.1242C109.651 24.7812 109.571 24.4242 109.483 24.0742C109.739 23.9972 109.994 23.9202 110.242 23.8431C112.548 23.1151 114.424 22.1771 115.774 21.113C117.124 20.049 118 18.8169 118 17.4658C118 16.1638 117.161 14.9877 115.891 13.9657C114.621 12.9506 112.862 12.0546 110.709 11.3475C110.286 11.2075 109.848 11.0745 109.396 10.9485C109.469 10.6615 109.542 10.3745 109.6 10.0875C110.089 7.80538 110.177 5.77528 109.892 4.1211C109.6 2.46762 108.929 1.12355 107.71 0.448722C107.162 0.143507 106.535 0.00490024 105.878 0ZM105.754 1.69058C106.214 1.67938 106.579 1.76058 106.834 1.90409C107.389 2.20861 107.922 3.02765 108.162 4.39411C108.403 5.76828 108.338 7.61637 107.878 9.74447C107.819 10.0035 107.761 10.2625 107.695 10.5285C106.002 10.1505 104.156 9.87048 102.215 9.69547C101.098 8.16939 99.9302 6.76933 98.748 5.54427C99.0691 5.25515 99.3756 4.97514 99.6894 4.71613C101.288 3.38536 102.828 2.47882 104.105 2.0294C104.74 1.80469 105.294 1.70178 105.754 1.69058ZM89.0562 1.72908H89.2314C89.7204 1.74238 90.3115 1.85509 90.9902 2.0973C92.3476 2.58312 93.9897 3.56037 95.6755 5.00244C95.8798 5.17745 96.0842 5.35946 96.2885 5.55127C95.1063 6.76933 93.9313 8.16239 92.8001 9.68847C90.8661 9.86347 89.0198 10.1435 87.3339 10.5075C87.2245 10.0945 87.1296 9.68847 87.0493 9.29645C86.6406 7.30835 86.5968 5.57227 86.8231 4.28841C87.0566 3.00524 87.5602 2.24221 88.0783 1.95379C88.3192 1.82009 88.6476 1.73888 89.0562 1.72908ZM97.5219 6.75533C98.332 7.58837 99.1347 8.52641 99.9302 9.54146C99.1347 9.50646 98.3174 9.48546 97.5 9.48546C96.6899 9.48546 95.8871 9.50646 95.0917 9.54146C95.8944 8.52641 96.7118 7.59537 97.5219 6.75533ZM97.5 11.1655C98.7771 11.1655 100.025 11.2145 101.237 11.2985C101.923 12.2646 102.587 13.2796 103.222 14.3297C103.856 15.3797 104.448 16.4368 104.98 17.4798C104.448 18.5369 103.864 19.6079 103.222 20.665C102.587 21.722 101.93 22.7371 101.251 23.7101C100.032 23.7941 98.7771 23.8361 97.5 23.8361C96.2375 23.8361 94.9968 23.7941 93.7853 23.7241C93.0993 22.7511 92.4279 21.736 91.7857 20.679C91.1435 19.6219 90.5596 18.5579 90.0342 17.5078C90.5596 16.4508 91.1435 15.3937 91.7784 14.3367C92.4133 13.2796 93.0847 12.2646 93.7707 11.2985C94.9822 11.2145 96.2302 11.1655 97.5 11.1655ZM91.5157 11.5156C91.0851 12.1596 90.6691 12.8176 90.2604 13.4967C89.8517 14.1757 89.4722 14.8547 89.1073 15.5267C88.5892 14.3647 88.1586 13.2236 87.801 12.1316C88.9687 11.8796 90.2093 11.6766 91.5157 11.5156ZM103.484 11.5226C104.798 11.6766 106.053 11.8936 107.221 12.1456C106.871 13.2376 106.425 14.3717 105.907 15.5337C105.535 14.8547 105.141 14.1687 104.732 13.4897C104.324 12.8176 103.908 12.1596 103.484 11.5226ZM86.1006 12.5446C86.6114 14.1337 87.2828 15.8068 88.1002 17.5078C87.2682 19.2369 86.5895 20.931 86.0714 22.5411C85.7284 22.4501 85.3927 22.3451 85.0643 22.2401C82.9916 21.561 81.3554 20.686 80.2819 19.804C79.2076 18.9219 78.7515 18.0679 78.7515 17.4658C78.7515 16.8848 79.1682 16.1008 80.1739 15.2747C81.1788 14.4487 82.7216 13.6227 84.6921 12.9646C85.1372 12.8176 85.6116 12.6776 86.1006 12.5446ZM108.929 12.5656C109.345 12.6846 109.753 12.8106 110.14 12.9366C112.14 13.5947 113.731 14.4207 114.774 15.2607C115.811 16.0938 116.249 16.8918 116.249 17.4658C116.249 18.0749 115.781 18.9289 114.665 19.811C113.541 20.693 111.841 21.568 109.695 22.2541C109.469 22.3241 109.242 22.3941 109.009 22.4571C108.483 20.861 107.776 19.1809 106.929 17.4798C107.746 15.7998 108.418 14.1477 108.929 12.5656ZM97.5 13.9587C96.5307 13.96 95.6015 14.3299 94.9161 14.9873C94.2307 15.6448 93.8451 16.5361 93.8437 17.4658C93.8431 18.3968 94.2279 19.2899 94.9135 19.9489C95.5991 20.6078 96.5294 20.9787 97.5 20.98C97.9812 20.9803 98.4577 20.8896 98.9023 20.7131C99.347 20.5366 99.7509 20.2777 100.091 19.9514C100.431 19.625 100.701 19.2375 100.885 18.811C101.069 18.3845 101.164 17.9274 101.164 17.4658C101.162 16.5349 100.776 15.6425 100.089 14.9849C99.4016 14.3272 98.4706 13.9581 97.5 13.9587ZM105.929 19.4259C106.469 20.616 106.936 21.778 107.301 22.8841C106.112 23.1431 104.827 23.3531 103.484 23.5071C103.908 22.8561 104.331 22.1841 104.74 21.505C105.156 20.812 105.55 20.119 105.929 19.4259ZM89.1073 19.4819C89.4722 20.161 89.859 20.84 90.2677 21.519C90.6837 22.2051 91.1143 22.8771 91.5522 23.5351C90.2239 23.3951 88.9541 23.1991 87.7791 22.9541C88.1367 21.8411 88.5819 20.679 89.1073 19.4819ZM107.783 24.5012C107.87 24.8232 107.943 25.1452 108.009 25.4532C108.432 27.5113 108.462 29.3104 108.206 30.6405C107.951 31.9775 107.403 32.7826 106.863 33.0836C106.338 33.3776 105.418 33.4266 104.17 33.0066C102.922 32.5796 101.404 31.7115 99.8281 30.4095C99.485 30.1294 99.142 29.8284 98.799 29.5064C99.974 28.2744 101.127 26.8603 102.236 25.3202C104.207 25.1522 106.075 24.8792 107.783 24.5012ZM87.3047 24.5782C89.0125 24.9422 90.8734 25.1942 92.8293 25.3412C93.9678 26.8813 95.1574 28.2884 96.3469 29.5134C96.0842 29.7584 95.8288 29.9894 95.566 30.2065C93.924 31.5855 92.3111 32.5096 90.9829 32.9576C89.6474 33.4126 88.6476 33.3636 88.1075 33.0626C87.5821 32.7756 87.0785 32.0335 86.8304 30.7875C86.5895 29.5414 86.6187 27.8473 87.0055 25.8802C87.0858 25.4602 87.188 25.0262 87.3047 24.5782ZM99.974 25.4602C99.1785 26.4963 98.3758 27.4483 97.573 28.3024C96.7483 27.4483 95.9163 26.4963 95.1063 25.4742C95.8944 25.5022 96.6899 25.5162 97.5 25.5162C98.332 25.5162 99.1566 25.4952 99.974 25.4602Z" fill="#2095F3"/>
</svg>
